<svg xmlns="http://www.w3.org/2000/svg" xmlns:xlink="http://www.w3.org/1999/xlink" width="500" zoomAndPan="magnify" viewBox="0 0 375 374.999991" height="500" preserveAspectRatio="xMidYMid meet" version="1.0"><defs><clipPath id="b044cb8bc3"><path d="M 46.128906 46.128906 L 328.871094 46.128906 L 328.871094 328.871094 L 46.128906 328.871094 Z M 46.128906 46.128906 " clip-rule="nonzero"/></clipPath><clipPath id="1b7cf2cb3e"><path d="M 187.5 46.128906 C 109.421875 46.128906 46.128906 109.421875 46.128906 187.5 C 46.128906 265.578125 109.421875 328.871094 187.5 328.871094 C 265.578125 328.871094 328.871094 265.578125 328.871094 187.5 C 328.871094 109.421875 265.578125 46.128906 187.5 46.128906 Z M 187.5 46.128906 " clip-rule="nonzero"/></clipPath><clipPath id="06ddaa5ba6"><path d="M 0.128906 0.128906 L 282.871094 0.128906 L 282.871094 282.871094 L 0.128906 282.871094 Z M 0.128906 0.128906 " clip-rule="nonzero"/></clipPath><clipPath id="9c569ed996"><path d="M 141.5 0.128906 C 63.421875 0.128906 0.128906 63.421875 0.128906 141.5 C 0.128906 219.578125 63.421875 282.871094 141.5 282.871094 C 219.578125 282.871094 282.871094 219.578125 282.871094 141.5 C 282.871094 63.421875 219.578125 0.128906 141.5 0.128906 Z M 141.5 0.128906 " clip-rule="nonzero"/></clipPath><clipPath id="775ac61c50"><rect x="0" width="283" y="0" height="283"/></clipPath><clipPath id="8f96419c89"><path d="M 7.078125 184 L 36 184 L 36 231 L 7.078125 231 Z M 7.078125 184 " clip-rule="nonzero"/></clipPath><clipPath id="ebcb8ba380"><path d="M 40 174.019531 L 69 174.019531 L 69 240.019531 L 40 240.019531 Z M 40 174.019531 " clip-rule="nonzero"/></clipPath></defs><g clip-path="url(#b044cb8bc3)"><g clip-path="url(#1b7cf2cb3e)"><g transform="matrix(1, 0, 0, 1, 46, 46)"><g clip-path="url(#775ac61c50)"><g clip-path="url(#06ddaa5ba6)"><g clip-path="url(#9c569ed996)"><path fill="#c1ff72" d="M 0.128906 0.128906 L 282.871094 0.128906 L 282.871094 282.871094 L 0.128906 282.871094 Z M 0.128906 0.128906 " fill-opacity="1" fill-rule="nonzero"/></g></g></g></g></g></g><path fill="#000000" d="M 187.5 375 C 291.054688 375 375 291.054688 375 187.5 C 375 83.945312 291.054688 0 187.5 0 C 83.945312 0 0 83.945312 0 187.5 C 0 291.054688 83.945312 375 187.5 375 Z M 89.777344 90.574219 C 91.5 88.621094 93.984375 87.5 96.589844 87.5 L 278.410156 87.5 C 281.015625 87.5 283.5 88.621094 285.222656 90.574219 C 286.949219 92.53125 287.753906 95.132812 287.429688 97.71875 L 269.246094 243.171875 C 268.871094 246.1875 267.011719 248.816406 264.292969 250.175781 L 191.566406 286.539062 C 189.007812 287.820312 185.992188 287.820312 183.433594 286.539062 L 110.707031 250.175781 C 107.988281 248.816406 106.128906 246.1875 105.753906 243.171875 L 87.570312 97.71875 C 87.246094 95.132812 88.050781 92.53125 89.777344 90.574219 Z M 164.773438 123.863281 L 164.773438 226.378906 L 146.554688 215.972656 L 137.535156 231.757812 L 169.351562 249.9375 C 172.167969 251.546875 175.625 251.535156 178.425781 249.910156 C 181.230469 248.28125 182.953125 245.285156 182.953125 242.046875 L 182.953125 123.863281 Z M 192.046875 123.863281 C 192.046875 118.84375 196.113281 114.773438 201.136719 114.773438 L 246.589844 114.773438 L 246.589844 132.953125 L 210.226562 132.953125 L 210.226562 171.621094 L 240.074219 164.988281 C 242.90625 164.359375 245.871094 165.121094 248.046875 167.039062 C 250.230469 168.953125 251.359375 171.796875 251.097656 174.6875 L 246.554688 224.6875 C 246.269531 227.824219 244.382812 230.585938 241.566406 231.996094 L 205.203125 250.175781 L 197.070312 233.914062 L 228.90625 217.996094 L 231.863281 185.4375 L 203.109375 191.828125 C 200.417969 192.425781 197.597656 191.769531 195.449219 190.046875 C 193.296875 188.320312 192.046875 185.710938 192.046875 182.953125 Z M 192.046875 123.863281 " fill-opacity="1" fill-rule="evenodd"/><g clip-path="url(#8f96419c89)"><path fill="#000000" d="M 31.035156 230.722656 C 29.640625 230.722656 28.707031 230.257812 27.777344 229.328125 L 9.140625 210.738281 C 7.277344 208.878906 7.277344 206.089844 9.140625 204.230469 L 27.777344 185.640625 C 29.640625 183.78125 32.433594 183.78125 34.296875 185.640625 C 36.160156 187.5 36.160156 190.289062 34.296875 192.148438 L 18.925781 207.484375 L 34.296875 222.824219 C 36.160156 224.683594 36.160156 227.472656 34.296875 229.328125 C 33.367188 230.257812 32.433594 230.722656 31.035156 230.722656 Z M 31.035156 230.722656 " fill-opacity="1" fill-rule="nonzero"/></g><path fill="#000000" d="M 77.621094 230.722656 C 76.222656 230.722656 75.289062 230.257812 74.359375 229.328125 C 72.496094 227.472656 72.496094 224.683594 74.359375 222.824219 L 89.730469 207.484375 L 74.359375 192.148438 C 72.496094 190.289062 72.496094 187.5 74.359375 185.640625 C 76.222656 183.78125 79.019531 183.78125 80.882812 185.640625 L 99.515625 204.230469 C 101.378906 206.089844 101.378906 208.878906 99.515625 210.738281 L 80.882812 229.328125 C 79.949219 230.257812 79.019531 230.722656 77.621094 230.722656 Z M 77.621094 230.722656 " fill-opacity="1" fill-rule="nonzero"/><g clip-path="url(#ebcb8ba380)"><path fill="#000000" d="M 45.011719 240.019531 C 44.546875 240.019531 44.078125 240.019531 43.613281 239.554688 C 41.285156 238.625 39.886719 236.300781 40.820312 233.511719 L 59.453125 177.738281 C 60.382812 175.414062 62.714844 174.019531 65.507812 174.949219 C 67.835938 175.878906 69.234375 178.203125 68.304688 180.992188 L 49.671875 236.765625 C 48.738281 238.625 46.875 240.019531 45.011719 240.019531 Z M 45.011719 240.019531 " fill-opacity="1" fill-rule="nonzero"/></g></svg>